<svg id="visual" viewBox="0 0 900 600" width="900" height="600" xmlns="http://www.w3.org/2000/svg" xmlns:xlink="http://www.w3.org/1999/xlink" version="1.1"><path d="M645 600L628.8 585.7C612.7 571.3 580.3 542.7 565 514.2C549.7 485.7 551.3 457.3 552.3 428.8C553.3 400.3 553.7 371.7 570.8 343C588 314.3 622 285.7 636.8 257C651.7 228.3 647.3 199.7 633.2 171.2C619 142.7 595 114.3 585.7 85.8C576.3 57.3 581.7 28.7 584.3 14.3L587 0L900 0L900 14.3C900 28.7 900 57.3 900 85.8C900 114.3 900 142.7 900 171.2C900 199.7 900 228.3 900 257C900 285.7 900 314.3 900 343C900 371.7 900 400.3 900 428.8C900 457.3 900 485.7 900 514.2C900 542.7 900 571.3 900 585.7L900 600Z" fill="#fa7268"></path><path d="M709 600L698.5 585.7C688 571.3 667 542.7 667.8 514.2C668.7 485.7 691.3 457.3 689.3 428.8C687.3 400.3 660.7 371.7 656.5 343C652.3 314.3 670.7 285.7 667.2 257C663.7 228.3 638.3 199.7 623.8 171.2C609.3 142.7 605.7 114.3 611.5 85.8C617.3 57.3 632.7 28.7 640.3 14.3L648 0L900 0L900 14.3C900 28.7 900 57.3 900 85.8C900 114.3 900 142.7 900 171.2C900 199.7 900 228.3 900 257C900 285.7 900 314.3 900 343C900 371.7 900 400.3 900 428.8C900 457.3 900 485.7 900 514.2C900 542.7 900 571.3 900 585.7L900 600Z" fill="#ef5f67"></path><path d="M699 600L704 585.7C709 571.3 719 542.7 721.8 514.2C724.7 485.7 720.3 457.3 722.8 428.8C725.3 400.3 734.7 371.7 736.2 343C737.7 314.3 731.3 285.7 724.8 257C718.3 228.3 711.7 199.7 717 171.2C722.3 142.7 739.7 114.3 732.8 85.8C726 57.3 695 28.7 679.5 14.3L664 0L900 0L900 14.3C900 28.7 900 57.3 900 85.8C900 114.3 900 142.7 900 171.2C900 199.7 900 228.3 900 257C900 285.7 900 314.3 900 343C900 371.7 900 400.3 900 428.8C900 457.3 900 485.7 900 514.2C900 542.7 900 571.3 900 585.7L900 600Z" fill="#e34c67"></path><path d="M785 600L783.2 585.7C781.3 571.3 777.7 542.7 781.3 514.2C785 485.7 796 457.3 791.8 428.8C787.7 400.3 768.3 371.7 768.2 343C768 314.3 787 285.7 786.8 257C786.7 228.3 767.3 199.7 766 171.2C764.7 142.7 781.3 114.3 781 85.8C780.7 57.3 763.3 28.7 754.7 14.3L746 0L900 0L900 14.3C900 28.7 900 57.3 900 85.8C900 114.3 900 142.7 900 171.2C900 199.7 900 228.3 900 257C900 285.7 900 314.3 900 343C900 371.7 900 400.3 900 428.8C900 457.3 900 485.7 900 514.2C900 542.7 900 571.3 900 585.7L900 600Z" fill="#d53867"></path><path d="M863 600L861.7 585.7C860.3 571.3 857.7 542.7 851.2 514.2C844.7 485.7 834.3 457.3 832.2 428.8C830 400.3 836 371.7 834 343C832 314.3 822 285.7 818.2 257C814.3 228.3 816.7 199.7 813 171.2C809.3 142.7 799.7 114.3 800.3 85.8C801 57.3 812 28.7 817.5 14.3L823 0L900 0L900 14.3C900 28.7 900 57.3 900 85.8C900 114.3 900 142.7 900 171.2C900 199.7 900 228.3 900 257C900 285.7 900 314.3 900 343C900 371.7 900 400.3 900 428.8C900 457.3 900 485.7 900 514.2C900 542.7 900 571.3 900 585.7L900 600Z" fill="#c62368"></path></svg>