<svg id="visual" viewBox="0 0 900 600" width="900" height="600" xmlns="http://www.w3.org/2000/svg" xmlns:xlink="http://www.w3.org/1999/xlink" version="1.1"><rect x="0" y="0" width="900" height="600" fill="#FFFFFF"></rect><defs><linearGradient id="grad1_0" x1="33.3%" y1="0%" x2="100%" y2="100%"><stop offset="20%" stop-color="#ffffff" stop-opacity="1"></stop><stop offset="80%" stop-color="#ffffff" stop-opacity="1"></stop></linearGradient></defs><defs><linearGradient id="grad2_0" x1="0%" y1="0%" x2="66.7%" y2="100%"><stop offset="20%" stop-color="#ffffff" stop-opacity="1"></stop><stop offset="80%" stop-color="#ffffff" stop-opacity="1"></stop></linearGradient></defs><g transform="translate(900, 0)"><path d="M0 297.5C-45.9 279.5 -91.7 261.6 -138 239C-184.3 216.5 -231 189.3 -257.6 148.7C-284.3 108.1 -290.9 54.1 -297.5 0L0 0Z" fill="#FF5C40"></path></g><g transform="translate(0, 600)"><path d="M0 -297.5C46.1 -280 92.3 -262.5 138.5 -239.9C184.7 -217.3 231.1 -189.6 257.6 -148.7C284.1 -107.9 290.8 -53.9 297.5 0L0 0Z" fill="#FF5C40"></path></g></svg>