<svg xmlns="http://www.w3.org/2000/svg" version="1.1" xmlns:xlink="http://www.w3.org/1999/xlink" xmlns:svgjs="http://svgjs.dev/svgjs" width="2000" height="1500" viewBox="0 0 2000 1500"><rect width="2000" height="1500" fill="#ffffff"></rect><g transform="matrix(0.75,0,0,0.75,249.09090909090912,282.7536437246963)"><svg viewBox="0 0 396 247" data-background-color="#ffffff" preserveAspectRatio="xMidYMid meet" height="1247" width="2000" xmlns="http://www.w3.org/2000/svg" xmlns:xlink="http://www.w3.org/1999/xlink"><g id="tight-bounds" transform="matrix(1,0,0,1,0.2400000000000091,-0.09999999999999432)"><svg viewBox="0 0 395.52 247.2" height="247.2" width="395.52"><g><svg></svg></g><g><svg viewBox="0 0 395.52 247.2" height="247.2" width="395.52"><g transform="matrix(1,0,0,1,75.54432,112.91556591677352)"><svg viewBox="0 0 244.43135999999998 21.368868166452962" height="21.368868166452962" width="244.43135999999998"><g><svg viewBox="0 0 244.43135999999998 21.368868166452962" height="21.368868166452962" width="244.43135999999998"><g><svg viewBox="0 0 244.43135999999998 21.368868166452962" height="21.368868166452962" width="244.43135999999998"><g><svg viewBox="0 0 244.43135999999998 21.368868166452962" height="21.368868166452962" width="244.43135999999998"><g><svg viewBox="0 0 244.43135999999998 21.368868166452962" height="21.368868166452962" width="244.43135999999998"><g><svg viewBox="0 0 244.43135999999998 21.368868166452962" height="21.368868166452962" width="244.43135999999998"><g transform="matrix(1,0,0,1,0,0)"><svg width="244.43135999999998" viewBox="4.150000095367432 -37.099998474121094 428.9200134277344 37.5" height="21.368868166452962" data-palette-color="#ff5c40"><path d="M19.3-35Q23.95-35 27.38-33.45 30.8-31.9 32.65-29.05 34.5-26.2 34.5-22.3L34.5-22.3Q34.5-18.45 32.65-15.58 30.8-12.7 27.38-11.18 23.95-9.65 19.3-9.65L19.3-9.65 12.25-9.65 12.25 0 4.15 0 4.15-35 19.3-35ZM18.85-16.25Q22.5-16.25 24.4-17.82 26.3-19.4 26.3-22.3L26.3-22.3Q26.3-25.25 24.4-26.83 22.5-28.4 18.85-28.4L18.85-28.4 12.25-28.4 12.25-16.25 18.85-16.25ZM59.15-26.9L66.95-26.9 66.95 0 59.5 0 59.5-3.1Q56.6 0.4 51.1 0.4L51.1 0.4Q47.3 0.4 44.22-1.3 41.15-3 39.4-6.15 37.65-9.3 37.65-13.45L37.65-13.45Q37.65-17.6 39.4-20.75 41.15-23.9 44.22-25.6 47.3-27.3 51.1-27.3L51.1-27.3Q56.25-27.3 59.15-24.05L59.15-24.05 59.15-26.9ZM52.45-6Q55.4-6 57.35-8.03 59.3-10.05 59.3-13.45L59.3-13.45Q59.3-16.85 57.35-18.88 55.4-20.9 52.45-20.9L52.45-20.9Q49.45-20.9 47.5-18.88 45.55-16.85 45.55-13.45L45.55-13.45Q45.55-10.05 47.5-8.03 49.45-6 52.45-6L52.45-6ZM90.5-27.3Q95.5-27.3 98.57-24.3 101.65-21.3 101.65-15.4L101.65-15.4 101.65 0 93.85 0 93.85-14.2Q93.85-17.4 92.45-18.98 91.05-20.55 88.4-20.55L88.4-20.55Q85.45-20.55 83.7-18.73 81.95-16.9 81.95-13.3L81.95-13.3 81.95 0 74.15 0 74.15-26.9 81.6-26.9 81.6-23.75Q83.15-25.45 85.45-26.38 87.75-27.3 90.5-27.3L90.5-27.3ZM128.59-37.1L136.39-37.1 136.39 0 128.94 0 128.94-3.1Q126.04 0.4 120.54 0.4L120.54 0.4Q116.74 0.4 113.67-1.3 110.59-3 108.84-6.15 107.09-9.3 107.09-13.45L107.09-13.45Q107.09-17.6 108.84-20.75 110.59-23.9 113.67-25.6 116.74-27.3 120.54-27.3L120.54-27.3Q125.69-27.3 128.59-24.05L128.59-24.05 128.59-37.1ZM121.89-6Q124.84-6 126.79-8.03 128.74-10.05 128.74-13.45L128.74-13.45Q128.74-16.85 126.79-18.88 124.84-20.9 121.89-20.9L121.89-20.9Q118.89-20.9 116.94-18.88 114.99-16.85 114.99-13.45L114.99-13.45Q114.99-10.05 116.94-8.03 118.89-6 121.89-6L121.89-6ZM156.39 0.4Q152.14 0.4 148.77-1.38 145.39-3.15 143.49-6.3 141.59-9.45 141.59-13.45L141.59-13.45Q141.59-17.45 143.49-20.6 145.39-23.75 148.77-25.53 152.14-27.3 156.39-27.3L156.39-27.3Q160.64-27.3 163.99-25.53 167.34-23.75 169.24-20.6 171.14-17.45 171.14-13.45L171.14-13.45Q171.14-9.45 169.24-6.3 167.34-3.15 163.99-1.38 160.64 0.4 156.39 0.4L156.39 0.4ZM156.39-6Q159.39-6 161.32-8.03 163.24-10.05 163.24-13.45L163.24-13.45Q163.24-16.85 161.32-18.88 159.39-20.9 156.39-20.9L156.39-20.9Q153.39-20.9 151.44-18.88 149.49-16.85 149.49-13.45L149.49-13.45Q149.49-10.05 151.44-8.03 153.39-6 156.39-6L156.39-6ZM183.79-23.35Q185.19-25.3 187.56-26.3 189.94-27.3 193.04-27.3L193.04-27.3 193.04-20.1Q191.74-20.2 191.29-20.2L191.29-20.2Q187.94-20.2 186.04-18.32 184.14-16.45 184.14-12.7L184.14-12.7 184.14 0 176.34 0 176.34-26.9 183.79-26.9 183.79-23.35ZM216.94-26.9L224.74-26.9 224.74 0 217.29 0 217.29-3.1Q214.39 0.4 208.89 0.4L208.89 0.4Q205.09 0.4 202.01-1.3 198.94-3 197.19-6.15 195.44-9.3 195.44-13.45L195.44-13.45Q195.44-17.6 197.19-20.75 198.94-23.9 202.01-25.6 205.09-27.3 208.89-27.3L208.89-27.3Q214.04-27.3 216.94-24.05L216.94-24.05 216.94-26.9ZM210.24-6Q213.19-6 215.14-8.03 217.09-10.05 217.09-13.45L217.09-13.45Q217.09-16.85 215.14-18.88 213.19-20.9 210.24-20.9L210.24-20.9Q207.24-20.9 205.29-18.88 203.34-16.85 203.34-13.45L203.34-13.45Q203.34-10.05 205.29-8.03 207.24-6 210.24-6L210.24-6ZM274.88-31.25L272.13-25.2Q267.63-27.8 262.48-28.55L262.48-28.55 262.48 0 254.38 0 254.38-28.55Q249.23-27.8 244.68-25.2L244.68-25.2 241.93-31.25Q245.53-33.4 249.73-34.5 253.93-35.6 258.38-35.6L258.38-35.6Q262.88-35.6 267.11-34.5 271.33-33.4 274.88-31.25L274.88-31.25ZM284.93-23.35Q286.33-25.3 288.7-26.3 291.08-27.3 294.18-27.3L294.18-27.3 294.18-20.1Q292.88-20.2 292.43-20.2L292.43-20.2Q289.08-20.2 287.18-18.32 285.28-16.45 285.28-12.7L285.28-12.7 285.28 0 277.48 0 277.48-26.9 284.93-26.9 284.93-23.35ZM318.08-26.9L325.88-26.9 325.88 0 318.43 0 318.43-3.1Q315.53 0.4 310.03 0.4L310.03 0.4Q306.23 0.4 303.15-1.3 300.08-3 298.33-6.15 296.58-9.3 296.58-13.45L296.58-13.45Q296.58-17.6 298.33-20.75 300.08-23.9 303.15-25.6 306.23-27.3 310.03-27.3L310.03-27.3Q315.18-27.3 318.08-24.05L318.08-24.05 318.08-26.9ZM311.38-6Q314.33-6 316.28-8.03 318.23-10.05 318.23-13.45L318.23-13.45Q318.23-16.85 316.28-18.88 314.33-20.9 311.38-20.9L311.38-20.9Q308.38-20.9 306.43-18.88 304.48-16.85 304.48-13.45L304.48-13.45Q304.48-10.05 306.43-8.03 308.38-6 311.38-6L311.38-6ZM352.27-26.9L359.77-26.9 348.42 0 340.37 0 329.07-26.9 337.12-26.9 344.57-8.6 352.27-26.9ZM375.77-5.85Q377.87-5.85 379.5-6.48 381.12-7.1 382.52-8.45L382.52-8.45 386.67-3.95Q382.87 0.4 375.57 0.4L375.57 0.4Q371.02 0.4 367.52-1.38 364.02-3.15 362.12-6.3 360.22-9.45 360.22-13.45L360.22-13.45Q360.22-17.4 362.1-20.58 363.97-23.75 367.25-25.53 370.52-27.3 374.62-27.3L374.62-27.3Q378.47-27.3 381.62-25.68 384.77-24.05 386.65-20.98 388.52-17.9 388.52-13.7L388.52-13.7 368.62-9.85Q369.47-7.85 371.3-6.85 373.12-5.85 375.77-5.85L375.77-5.85ZM374.62-21.4Q371.67-21.4 369.82-19.5 367.97-17.6 367.87-14.25L367.87-14.25 380.97-16.8Q380.42-18.9 378.72-20.15 377.02-21.4 374.62-21.4L374.62-21.4ZM403.42 0.4Q398.87 0.4 396.32-2.02 393.77-4.45 393.77-8.9L393.77-8.9 393.77-37.1 401.57-37.1 401.57-9.35Q401.57-7.65 402.44-6.73 403.32-5.8 404.92-5.8L404.92-5.8Q405.52-5.8 406.14-5.95 406.77-6.1 407.12-6.3L407.12-6.3 407.47-0.25Q405.52 0.4 403.42 0.4L403.42 0.4ZM420.37 0.4Q417.02 0.4 413.82-0.43 410.62-1.25 408.72-2.5L408.72-2.5 411.32-8.1Q413.12-6.95 415.67-6.23 418.22-5.5 420.67-5.5L420.67-5.5Q425.62-5.5 425.62-7.95L425.62-7.95Q425.62-9.1 424.27-9.6 422.92-10.1 420.12-10.45L420.12-10.45Q416.82-10.95 414.67-11.6 412.52-12.25 410.94-13.9 409.37-15.55 409.37-18.6L409.37-18.6Q409.37-21.15 410.84-23.13 412.32-25.1 415.14-26.2 417.97-27.3 421.82-27.3L421.82-27.3Q424.67-27.3 427.49-26.68 430.32-26.05 432.17-24.95L432.17-24.95 429.57-19.4Q426.02-21.4 421.82-21.4L421.82-21.4Q419.32-21.4 418.07-20.7 416.82-20 416.82-18.9L416.82-18.9Q416.82-17.65 418.17-17.15 419.52-16.65 422.47-16.2L422.47-16.2Q425.77-15.65 427.87-15.03 429.97-14.4 431.52-12.75 433.07-11.1 433.07-8.15L433.07-8.15Q433.07-5.65 431.57-3.7 430.07-1.75 427.19-0.68 424.32 0.4 420.37 0.4L420.37 0.4Z" opacity="1" transform="matrix(1,0,0,1,0,0)" fill="#ff5c40" class="undefined-text-0" data-fill-palette-color="primary" id="text-0"></path></svg></g></svg></g></svg></g></svg></g></svg></g></svg></g></svg></g><g><path d="M0 123.6c0-68.262 55.338-123.6 123.6-123.6 63.801 0 116.311 48.341 122.903 110.393h-0.969c-6.587-61.519-58.665-109.43-121.934-109.429-67.73 0-122.636 54.906-122.636 122.636 0 67.73 54.906 122.636 122.636 122.636 63.268 0 115.347-47.91 121.934-109.429h0.969c-6.591 62.053-59.102 110.393-122.903 110.393-68.262 0-123.6-55.338-123.6-123.6z" fill="#ff5c40" stroke="transparent" data-fill-palette-color="tertiary"></path></g></svg></g><defs></defs></svg><rect width="395.52" height="247.2" fill="none" stroke="none" visibility="hidden"></rect></g></svg></g></svg>